<svg enable-background="new 0 0 24 24" height="24" viewBox="0 0 24 24" width="24" xmlns="http://www.w3.org/2000/svg"><path d="m0 0h24v24h-24z" fill="none"/><path d="m0 0h24v24h-24z" fill="none"/><path d="m20 3h-8c-.55 0-1 .45-1 1v1.61s0 0 .01.01l5 4.5c.63.56.99 1.38.99 2.23v.65h2v2h-2v2h2v2h-2v2h3c.55 0 1-.45 1-1v-16c0-.55-.45-1-1-1zm-5 4h-2v-2h2zm4 4h-2v-2h2zm0-4h-2v-2h2z"/><path d="m15 20v-7.65c0-.28-.12-.55-.33-.74l-5-4.5c-.19-.18-.43-.26-.67-.26s-.48.09-.67.26l-5 4.5c-.21.18-.33.45-.33.74v7.65c0 .55.45 1 1 1h2c.55 0 1-.45 1-1v-4h4v4c0 .55.45 1 1 1h2c.55 0 1-.45 1-1z"/></svg>